PathFileType	4	(X/Y/Z)	Patient4_TMGait_0pt6_02_right_05.trc.trc
DataRate	CameraRate	NumFrames	NumMarkers	Units	OrigDataRate	OrigDataStartFrame	OrigNumFrames
85.889570552147	85.889570552147	4	33	mm	85.889570552147	89	       141
Frame#	Time	Sacral			L.Shoulder			Chest			R.Shoulder			Neck			R.ASIS			L.ASIS			R.Thigh.Superior			R.Thigh.Lateral			R.Thigh.Inferior			R.Patella			L.Thigh.Superior			L.Thigh.Lateral			L.Thigh.Inferior			L.Patella			L.Shank.Superior			L.Shank.Lateral			L.Shank.Inferior			R.Shank.Superior			R.Shank.Lateral			R.Shank.Inferior			R.Heel			R.Midfoot.Superior			R.Midfoot.Lateral			R.Toe			L.Heel			L.Midfoot.Lateral			L.Midfoot.Superior			L.Toe			L.Elbow			L.Wrist			R.Elbow			R.Wrist			
		X1	Y1	Z1	X2	Y2	Z2	X3	Y3	Z3	X4	Y4	Z4	X5	Y5	Z5	X6	Y6	Z6	X7	Y7	Z7	X8	Y8	Z8	X9	Y9	Z9	X10	Y10	Z10	X11	Y11	Z11	X12	Y12	Z12	X13	Y13	Z13	X14	Y14	Z14	X15	Y15	Z15	X16	Y16	Z16	X17	Y17	Z17	X18	Y18	Z18	X19	Y19	Z19	X20	Y20	Z20	X21	Y21	Z21	X22	Y22	Z22	X23	Y23	Z23	X24	Y24	Z24	X25	Y25	Z25	X26	Y26	Z26	X27	Y27	Z27	X28	Y28	Z28	X29	Y29	Z29	X30	Y30	Z30	X31	Y31	Z31	X32	Y32	Z32	X33	Y33	Z33	

89	6.514571428571	701.117499718600	1004.584488368934	499.995631205092	839.483742873484	1430.249755708114	303.289390623246	965.431476916313	1367.378404371822	449.944938504679	901.826973075450	1441.809026774686	631.575637706844	838.661787598971	1491.293790377037	457.265988648734	933.894221803612	934.407139451171	595.418828810535	899.705968052076	963.020408321204	324.402683600283	960.518388192272	725.630678100439	566.915198530402	876.774720893966	618.131434837468	631.825916541399	950.671381330046	557.998985651048	552.761892092612	936.919188021702	449.678234483530	569.515702438675	966.813340682868	760.492534892307	347.316981838394	886.068570662754	637.857935165091	292.948791993181	982.790293252864	568.619272669323	349.497127718365	990.412539562691	499.120691958114	357.241870905005	968.478007271522	424.991826734926	350.140819017240	884.207255074961	303.627383663620	307.463901843581	952.014956278821	197.647437786198	372.420347692306	860.584132042017	383.681945496643	574.049078673490	742.314139201330	337.404655330565	634.657464584547	730.532785476862	230.532624084046	578.884181067616	530.218093348945	148.520505033118	547.234082813687	704.238191795126	117.510446429219	591.631161679083	596.421606384873	102.519291259016	623.173744184068	783.349431564653	32.346332470061	622.824214952568	839.276028526622	37.311243108399	425.742799899625	904.650425147744	35.381923477942	337.559777862382	988.185436481304	98.440026464368	355.675638710355	1113.933773857697	50.629154401008	314.836056801186	803.401320693264	1071.980518401254	199.518315370835	877.815420513161	822.948196744237	188.461981526574	931.141610251132	1097.156977122316	748.255057307191	1164.331507955059	1057.592571584771	663.781567049645	
90	6.526214285714	700.138829054962	1005.056093793687	497.941401870709	840.355903746040	1430.543080513508	301.014647707586	965.233150985278	1367.815800136984	448.612765716241	900.568371569640	1442.469077329815	629.764204787449	838.481377370815	1491.818426458094	455.013422123940	932.680334460776	934.934250329869	594.164624747952	899.329308433321	963.633765575153	323.143664220449	964.794957287990	728.274791101382	565.916050115968	884.003268551709	618.937237808055	630.959179736104	960.134039353552	560.179337846026	552.319074848224	947.853248083119	450.558224450824	569.595750808876	964.737523384437	759.694122638030	345.527086292563	882.745847933138	637.866717672783	291.824308435851	978.573537623110	567.817539493962	348.667942396092	985.458017133936	498.471140259532	356.705105296811	963.317005438628	424.477458447505	349.573673111433	878.609167908784	303.435140036186	307.056891164934	945.643168936938	197.281546284917	372.361194283201	869.708721966730	385.284205795255	573.620573090461	749.592859079666	342.864446786028	633.554335135875	735.099861925667	236.101577563202	578.362229830183	532.903093782543	162.943772676033	545.450299837432	704.540218141856	122.080585775840	591.233318972313	595.725399131644	113.247303882851	621.881058986828	777.889861951383	31.474515488524	622.988850326451	832.207626395267	37.259792022573	425.734159883763	897.569924093385	35.296415232215	337.550933450531	981.211092802469	98.202150650103	355.762380029414	1106.922463327443	50.283975135821	314.835538761617	810.712611821429	1071.839729335296	196.136034360171	893.873763340295	825.410196160575	186.003737695012	924.226962219836	1097.034471934020	746.145574010508	1155.961392056206	1041.524442226165	664.297442763133	
91	6.537857142857	699.015682390061	1005.395637155509	495.922497406905	841.258290205966	1430.776982797765	298.923533508009	965.002707240922	1368.101963061537	447.480574541373	899.223352307067	1442.867902121258	628.174977208604	838.331960538066	1492.238894054950	452.998402174037	931.347991756907	935.365947966362	592.950302514433	898.862553648609	964.103505823777	321.913972456856	968.989065776843	731.131763387563	564.864134229384	891.365547402106	620.029352188799	630.149254625452	969.549994496052	562.781878372559	551.791845017651	958.925221643062	451.956580074522	569.462867166188	962.610591103921	758.932813179823	344.099164998532	879.668658775963	637.913358361606	290.649886074234	974.485784205947	567.072415687163	347.982149382374	980.630525962219	497.812267940177	356.199319053889	958.269217801253	423.944517600810	349.031004504572	873.138452964188	303.237273526485	306.575827257479	939.326887265762	196.900956145881	372.296564260477	879.146302924578	387.249693660515	573.061029473272	757.410912745944	348.476996881013	632.360074063134	740.322417377883	241.949916660303	577.704799036335	536.777096470082	177.421598649739	543.513136567214	705.601533018266	127.111382599526	590.675695591090	596.083520437715	124.254109276562	620.415113643330	773.202616392214	30.862097251956	623.055081368195	825.154048480853	37.211625269338	425.719251292534	890.505773785405	35.214014402270	337.539407522140	974.264576436297	97.966934338359	355.851020829166	1099.937757913466	49.902671318100	314.843080730875	817.826965006619	1071.856675655248	192.821146847718	910.035662770984	828.444583173942	183.722385680069	917.328636624286	1096.611805606363	744.066844031285	1146.569782369511	1024.812021680456	665.402586337975	
92	6.549500000000	697.776328845764	1005.643156011325	493.938801717935	842.159883429108	1430.995268460158	297.044120123840	964.742776154448	1368.273507826674	446.545895749438	897.824368414489	1443.043180326427	626.815331242242	838.217781680715	1492.589032421527	451.241242143666	929.912532908586	935.751108652540	591.768963545141	898.344144988208	964.474973747379	320.701600373096	973.007119163740	734.204862423266	563.713000123767	898.767937114187	621.441109415438	629.368882532522	978.787162956280	565.827495976388	551.132154788140	970.031178529720	453.890537313100	569.099649446886	960.490629026383	758.234282217246	342.998185398892	876.802865973926	638.002561683574	289.460226392135	970.533611553441	566.382036875332	347.404554713793	975.944280710474	497.154115860463	355.728103163823	953.341429210904	423.404956193892	348.518338825280	867.784502202326	303.053147773037	306.045114433140	933.066367027609	196.517587420109	372.225787130230	888.803179557081	389.588380231676	572.371072761154	765.678616854829	354.170644060644	631.083635487489	746.177009112204	247.976756295183	576.927326040385	541.772630629707	191.563732412455	541.520861265802	707.529164175581	132.484079847659	589.943393300549	597.588556861789	135.204292824739	618.815742187904	769.589171646545	30.675836226271	622.912379372997	818.118167960218	37.168258378715	425.695999182314	883.460466961486	35.140442888159	337.521329847769	967.339302523662	97.749104505565	355.934445933945	1092.975654633709	49.517586733264	314.851373927986	824.726842111886	1072.059847329055	189.606352530749	926.203535061690	832.104400151132	181.639300113854	910.485172209455	1095.928670358839	742.039610080771	1136.072214515429	1007.579228790718	667.104474792745	
